{"asset":{"generator":"3D Builder","version":"2.0"},"scene":0,"scenes":[{"nodes":[0,1,2,3,4,5,6,7,8,9,10,11,12,13,14,15]}],"nodes":[{"mesh":0,"matrix":[4290.15576171875,0,0,0,0,-0.000511426420416683,-4290.1552734375,0,0,4290.1552734375,-0.000511426420416683,0,0,0,0,1]},{"mesh":1,"matrix":[4290.15576171875,0,0,0,0,-0.000511426420416683,-4290.1552734375,0,0,4290.1552734375,-0.000511426420416683,0,0,0,0,1]},{"mesh":2,"matrix":[4290.15576171875,0,0,0,0,-0.000511426420416683,-4290.1552734375,0,0,4290.1552734375,-0.000511426420416683,0,0,0,0,1]},{"mesh":3,"matrix":[4290.15576171875,0,0,0,0,-0.000511426420416683,-4290.1552734375,0,0,4290.1552734375,-0.000511426420416683,0,0,0,0,1]},{"mesh":4,"matrix":[4290.15576171875,0,0,0,0,-0.000511426420416683,-4290.1552734375,0,0,4290.1552734375,-0.000511426420416683,0,0,0,0,1]},{"mesh":5,"matrix":[4290.15576171875,0,0,0,0,-0.000511426420416683,-4290.1552734375,0,0,4290.1552734375,-0.000511426420416683,0,0,0,0,1]},{"mesh":6,"matrix":[4290.15576171875,0,0,0,0,-0.000511426420416683,-4290.1552734375,0,0,4290.1552734375,-0.000511426420416683,0,0,0,0,1]},{"mesh":7,"matrix":[4290.15576171875,0,0,0,0,-0.000511426420416683,-4290.1552734375,0,0,4290.1552734375,-0.000511426420416683,0,0,0,0,1]},{"mesh":8,"matrix":[4290.15576171875,0,0,0,0,-0.000511426420416683,-4290.1552734375,0,0,4290.1552734375,-0.000511426420416683,0,0,0,0,1]},{"mesh":9,"matrix":[4290.15576171875,0,0,0,0,-0.000511426420416683,-4290.1552734375,0,0,4290.1552734375,-0.000511426420416683,0,0,0,0,1]},{"mesh":10,"matrix":[4290.15576171875,0,0,0,0,-0.000511426420416683,-4290.1552734375,0,0,4290.1552734375,-0.000511426420416683,0,0,0,0,1]},{"mesh":11,"matrix":[4290.15576171875,0,0,0,0,-0.000511426420416683,-4290.1552734375,0,0,4290.1552734375,-0.000511426420416683,0,0,0,0,1]},{"mesh":12,"matrix":[4290.15576171875,0,0,0,0,-0.000511426420416683,-4290.1552734375,0,0,4290.1552734375,-0.000511426420416683,0,0,0,0,1]},{"mesh":13,"matrix":[4290.15576171875,0,0,0,0,-0.000511426420416683,-4290.1552734375,0,0,4290.1552734375,-0.000511426420416683,0,0,0,0,1]},{"mesh":14,"matrix":[4290.15576171875,0,0,0,0,-0.000511426420416683,-4290.1552734375,0,0,4290.1552734375,-0.000511426420416683,0,0,0,0,1]},{"mesh":15,"matrix":[4290.15576171875,0,0,0,0,-0.000511426420416683,-4290.1552734375,0,0,4290.1552734375,-0.000511426420416683,0,0,0,0,1]}],"meshes":[{"primitives":[{"attributes":{"POSITION":0},"mode":4,"indices":1,"material":0}]},{"primitives":[{"attributes":{"POSITION":2,"COLOR_0":3},"mode":4,"indices":4}]},{"primitives":[{"attributes":{"POSITION":5},"mode":4,"indices":6,"material":0}]},{"primitives":[{"attributes":{"POSITION":7,"COLOR_0":8},"mode":4,"indices":9}]},{"primitives":[{"attributes":{"POSITION":10,"COLOR_0":11},"mode":4,"indices":12}]},{"primitives":[{"attributes":{"POSITION":13,"COLOR_0":14},"mode":4,"indices":15}]},{"primitives":[{"attributes":{"POSITION":16,"COLOR_0":17},"mode":4,"indices":18}]},{"primitives":[{"attributes":{"POSITION":19},"mode":4,"indices":20,"material":1}]},{"primitives":[{"attributes":{"POSITION":21,"COLOR_0":22},"mode":4,"indices":23}]},{"primitives":[{"attributes":{"POSITION":24,"COLOR_0":25},"mode":4,"indices":26}]},{"primitives":[{"attributes":{"POSITION":27,"COLOR_0":28},"mode":4,"indices":29}]},{"primitives":[{"attributes":{"POSITION":30,"COLOR_0":31},"mode":4,"indices":32}]},{"primitives":[{"attributes":{"POSITION":33,"COLOR_0":34},"mode":4,"indices":35}]},{"primitives":[{"attributes":{"POSITION":36},"mode":4,"indices":37,"material":1}]},{"primitives":[{"attributes":{"POSITION":38,"COLOR_0":39},"mode":4,"indices":40}]},{"primitives":[{"attributes":{"POSITION":41,"COLOR_0":42},"mode":4,"indices":43}]}],"materials":[{"name":"Green_0","pbrMetallicRoughness":{"baseColorFactor":[0.015208514407277107,0.49693304300308228,0.072271861135959625,1],"metallicFactor":0,"roughnessFactor":1},"alphaMode":"OPAQUE"},{"name":"Green","pbrMetallicRoughness":{"baseColorFactor":[0.015208514407277107,0.49693304300308228,0.072271861135959625,1],"metallicFactor":0,"roughnessFactor":1},"alphaMode":"OPAQUE"}],"accessors":[{"bufferView":0,"byteOffset":0,"count":8,"componentType":5126,"type":"VEC3","min":[-0.000531886937096715,-0.00053191487677395344,0.0038568286690860987],"max":[0.000531886937096715,0.00053191190818324685,0.00492060836404562]},{"bufferView":1,"byteOffset":0,"count":36,"componentType":5125,"type":"SCALAR"},{"bufferView":2,"byteOffset":0,"count":8,"componentType":5126,"type":"VEC3","min":[-0.0012507200008258224,-0.0012507796054705977,0.0013553895987570286],"max":[0.0012507200008258224,0.0012507796054705977,0.0038568286690860987]},{"bufferView":3,"byteOffset":0,"count":8,"componentType":5121,"type":"VEC4","normalized":true},{"bufferView":4,"byteOffset":0,"count":36,"componentType":5125,"type":"SCALAR"},{"bufferView":5,"byteOffset":0,"count":8,"componentType":5126,"type":"VEC3","min":[-0.000531886937096715,-0.00053191487677395344,0.0038568286690860987],"max":[0.000531886937096715,0.00053191190818324685,0.00492060836404562]},{"bufferView":6,"byteOffset":0,"count":36,"componentType":5125,"type":"SCALAR"},{"bufferView":7,"byteOffset":0,"count":14,"componentType":5126,"type":"VEC3","min":[0.0012507200008258224,-0.00053191487677395344,0.0027095992118120193],"max":[0.0029671299271285534,0.00053191190818324685,0.0033083590678870678]},{"bufferView":8,"byteOffset":0,"count":14,"componentType":5121,"type":"VEC4","normalized":true},{"bufferView":9,"byteOffset":0,"count":36,"componentType":5125,"type":"SCALAR"},{"bufferView":10,"byteOffset":0,"count":14,"componentType":5126,"type":"VEC3","min":[-0.0029671299271285534,-0.00053191487677395344,0.0027095992118120193],"max":[-0.0012507200008258224,0.00053191190818324685,0.0033083590678870678]},{"bufferView":11,"byteOffset":0,"count":14,"componentType":5121,"type":"VEC4","normalized":true},{"bufferView":12,"byteOffset":0,"count":36,"componentType":5125,"type":"SCALAR"},{"bufferView":13,"byteOffset":0,"count":14,"componentType":5126,"type":"VEC3","min":[-0.0011306499363854527,-0.000531915866304189,5.1999982986217219E-8],"max":[-0.00053191394545137882,0.00053191190818324685,0.0014064995339140296]},{"bufferView":14,"byteOffset":0,"count":14,"componentType":5121,"type":"VEC4","normalized":true},{"bufferView":15,"byteOffset":0,"count":36,"componentType":5125,"type":"SCALAR"},{"bufferView":16,"byteOffset":0,"count":14,"componentType":5126,"type":"VEC3","min":[0.00053063395898789167,-0.000531915866304189,5.1999982986217219E-8],"max":[0.0011293699499219656,0.00053191190818324685,0.0014064995339140296]},{"bufferView":17,"byteOffset":0,"count":14,"componentType":5121,"type":"VEC4","normalized":true},{"bufferView":18,"byteOffset":0,"count":36,"componentType":5125,"type":"SCALAR"},{"bufferView":19,"byteOffset":0,"count":110,"componentType":5126,"type":"VEC3","min":[-0.00055732618784531951,-0.00056883692741394043,0.0049291294999420643],"max":[0.00056357105495408177,0.0005651409737765789,0.0060603860765695572]},{"bufferView":20,"byteOffset":0,"count":648,"componentType":5125,"type":"SCALAR"},{"bufferView":21,"byteOffset":0,"count":8,"componentType":5126,"type":"VEC3","min":[-0.0012507200008258224,-0.0012507796054705977,0.0013553895987570286],"max":[0.0012507200008258224,0.0012507796054705977,0.0038568286690860987]},{"bufferView":22,"byteOffset":0,"count":8,"componentType":5121,"type":"VEC4","normalized":true},{"bufferView":23,"byteOffset":0,"count":36,"componentType":5125,"type":"SCALAR"},{"bufferView":24,"byteOffset":0,"count":14,"componentType":5126,"type":"VEC3","min":[0.0012507200008258224,-0.00053191487677395344,0.0027095992118120193],"max":[0.0029671299271285534,0.00053191190818324685,0.0033083590678870678]},{"bufferView":25,"byteOffset":0,"count":14,"componentType":5121,"type":"VEC4","normalized":true},{"bufferView":26,"byteOffset":0,"count":36,"componentType":5125,"type":"SCALAR"},{"bufferView":27,"byteOffset":0,"count":14,"componentType":5126,"type":"VEC3","min":[-0.0029671299271285534,-0.00053191487677395344,0.0027095992118120193],"max":[-0.0012507200008258224,0.00053191190818324685,0.0033083590678870678]},{"bufferView":28,"byteOffset":0,"count":14,"componentType":5121,"type":"VEC4","normalized":true},{"bufferView":29,"byteOffset":0,"count":36,"componentType":5125,"type":"SCALAR"},{"bufferView":30,"byteOffset":0,"count":14,"componentType":5126,"type":"VEC3","min":[-0.0011306499363854527,-0.000531915866304189,5.1999982986217219E-8],"max":[-0.00053191394545137882,0.00053191190818324685,0.0014064995339140296]},{"bufferView":31,"byteOffset":0,"count":14,"componentType":5121,"type":"VEC4","normalized":true},{"bufferView":32,"byteOffset":0,"count":36,"componentType":5125,"type":"SCALAR"},{"bufferView":33,"byteOffset":0,"count":14,"componentType":5126,"type":"VEC3","min":[0.00053063395898789167,-0.000531915866304189,5.1999982986217219E-8],"max":[0.0011293699499219656,0.00053191190818324685,0.0014064995339140296]},{"bufferView":34,"byteOffset":0,"count":14,"componentType":5121,"type":"VEC4","normalized":true},{"bufferView":35,"byteOffset":0,"count":36,"componentType":5125,"type":"SCALAR"},{"bufferView":36,"byteOffset":0,"count":110,"componentType":5126,"type":"VEC3","min":[-0.000557327235583216,-0.00056883692741394043,0.0049291294999420643],"max":[0.00056357000721618533,0.0005651409737765789,0.0060603860765695572]},{"bufferView":37,"byteOffset":0,"count":648,"componentType":5125,"type":"SCALAR"},{"bufferView":38,"byteOffset":0,"count":14,"componentType":5126,"type":"VEC3","min":[-0.0011300102341920137,-0.000531915866304189,-3.5527136788005009E-15],"max":[-0.00053127430146560073,0.00053191190818324685,0.001406447496265173]},{"bufferView":39,"byteOffset":0,"count":14,"componentType":5121,"type":"VEC4","normalized":true},{"bufferView":40,"byteOffset":0,"count":36,"componentType":5125,"type":"SCALAR"},{"bufferView":41,"byteOffset":0,"count":14,"componentType":5126,"type":"VEC3","min":[0.00053127360297366977,-0.000531915866304189,-3.5527136788005009E-15],"max":[0.0011300096521154046,0.00053191190818324685,0.001406447496265173]},{"bufferView":42,"byteOffset":0,"count":14,"componentType":5121,"type":"VEC4","normalized":true},{"bufferView":43,"byteOffset":0,"count":36,"componentType":5125,"type":"SCALAR"}],"bufferViews":[{"buffer":0,"byteOffset":0,"byteLength":96,"byteStride":12,"target":34962},{"buffer":0,"byteOffset":96,"byteLength":144,"target":34963},{"buffer":0,"byteOffset":240,"byteLength":96,"byteStride":12,"target":34962},{"buffer":0,"byteOffset":336,"byteLength":32,"byteStride":4,"target":34962},{"buffer":0,"byteOffset":368,"byteLength":144,"target":34963},{"buffer":0,"byteOffset":512,"byteLength":96,"byteStride":12,"target":34962},{"buffer":0,"byteOffset":608,"byteLength":144,"target":34963},{"buffer":0,"byteOffset":752,"byteLength":168,"byteStride":12,"target":34962},{"buffer":0,"byteOffset":920,"byteLength":56,"byteStride":4,"target":34962},{"buffer":0,"byteOffset":976,"byteLength":144,"target":34963},{"buffer":0,"byteOffset":1120,"byteLength":168,"byteStride":12,"target":34962},{"buffer":0,"byteOffset":1288,"byteLength":56,"byteStride":4,"target":34962},{"buffer":0,"byteOffset":1344,"byteLength":144,"target":34963},{"buffer":0,"byteOffset":1488,"byteLength":168,"byteStride":12,"target":34962},{"buffer":0,"byteOffset":1656,"byteLength":56,"byteStride":4,"target":34962},{"buffer":0,"byteOffset":1712,"byteLength":144,"target":34963},{"buffer":0,"byteOffset":1856,"byteLength":168,"byteStride":12,"target":34962},{"buffer":0,"byteOffset":2024,"byteLength":56,"byteStride":4,"target":34962},{"buffer":0,"byteOffset":2080,"byteLength":144,"target":34963},{"buffer":0,"byteOffset":2224,"byteLength":1320,"byteStride":12,"target":34962},{"buffer":0,"byteOffset":3544,"byteLength":2592,"target":34963},{"buffer":0,"byteOffset":6136,"byteLength":96,"byteStride":12,"target":34962},{"buffer":0,"byteOffset":6232,"byteLength":32,"byteStride":4,"target":34962},{"buffer":0,"byteOffset":6264,"byteLength":144,"target":34963},{"buffer":0,"byteOffset":6408,"byteLength":168,"byteStride":12,"target":34962},{"buffer":0,"byteOffset":6576,"byteLength":56,"byteStride":4,"target":34962},{"buffer":0,"byteOffset":6632,"byteLength":144,"target":34963},{"buffer":0,"byteOffset":6776,"byteLength":168,"byteStride":12,"target":34962},{"buffer":0,"byteOffset":6944,"byteLength":56,"byteStride":4,"target":34962},{"buffer":0,"byteOffset":7000,"byteLength":144,"target":34963},{"buffer":0,"byteOffset":7144,"byteLength":168,"byteStride":12,"target":34962},{"buffer":0,"byteOffset":7312,"byteLength":56,"byteStride":4,"target":34962},{"buffer":0,"byteOffset":7368,"byteLength":144,"target":34963},{"buffer":0,"byteOffset":7512,"byteLength":168,"byteStride":12,"target":34962},{"buffer":0,"byteOffset":7680,"byteLength":56,"byteStride":4,"target":34962},{"buffer":0,"byteOffset":7736,"byteLength":144,"target":34963},{"buffer":0,"byteOffset":7880,"byteLength":1320,"byteStride":12,"target":34962},{"buffer":0,"byteOffset":9200,"byteLength":2592,"target":34963},{"buffer":0,"byteOffset":11792,"byteLength":168,"byteStride":12,"target":34962},{"buffer":0,"byteOffset":11960,"byteLength":56,"byteStride":4,"target":34962},{"buffer":0,"byteOffset":12016,"byteLength":144,"target":34963},{"buffer":0,"byteOffset":12160,"byteLength":168,"byteStride":12,"target":34962},{"buffer":0,"byteOffset":12328,"byteLength":56,"byteStride":4,"target":34962},{"buffer":0,"byteOffset":12384,"byteLength":144,"target":34963}],"buffers":[{"byteLength":12528,"uri":"myobj.bin"}]}