{
    "asset" : {
        "generator" : "Khronos glTF Blender I/O v1.3.48",
        "version" : "2.0"
    },
    "scene" : 0,
    "scenes" : [
        {
            "name" : "Scene",
            "nodes" : [
                0,
                1,
                2,
                3,
                4,
                5,
                6,
                7,
                8,
                9
            ]
        }
    ],
    "nodes" : [
        {
            "mesh" : 0,
            "name" : "Mesh_0",
            "rotation" : [
                -0.7071068286895752,
                0,
                0,
                0.7071067094802856
            ],
            "scale" : [
                4290.15576171875,
                4290.1552734375,
                4290.1552734375
            ]
        },
        {
            "mesh" : 1,
            "name" : "Mesh_1",
            "rotation" : [
                -0.7071068286895752,
                0,
                0,
                0.7071067094802856
            ],
            "scale" : [
                4290.15576171875,
                4290.1552734375,
                4290.1552734375
            ]
        },
        {
            "mesh" : 2,
            "name" : "Mesh_2",
            "rotation" : [
                -0.7071068286895752,
                0,
                0,
                0.7071067094802856
            ],
            "scale" : [
                4290.15576171875,
                4290.1552734375,
                4290.1552734375
            ]
        },
        {
            "mesh" : 3,
            "name" : "Mesh_3",
            "rotation" : [
                -0.7071068286895752,
                0,
                0,
                0.7071067094802856
            ],
            "scale" : [
                4290.15576171875,
                4290.1552734375,
                4290.1552734375
            ]
        },
        {
            "mesh" : 4,
            "name" : "Mesh_4",
            "rotation" : [
                -0.7071068286895752,
                0,
                0,
                0.7071067094802856
            ],
            "scale" : [
                4290.15576171875,
                4290.1552734375,
                4290.1552734375
            ]
        },
        {
            "mesh" : 5,
            "name" : "Mesh_5",
            "rotation" : [
                -0.7071068286895752,
                0,
                0,
                0.7071067094802856
            ],
            "scale" : [
                4290.15576171875,
                4290.1552734375,
                4290.1552734375
            ]
        },
        {
            "mesh" : 6,
            "name" : "Mesh_6",
            "rotation" : [
                -0.7071068286895752,
                0,
                0,
                0.7071067094802856
            ],
            "scale" : [
                4290.15576171875,
                4290.1552734375,
                4290.1552734375
            ]
        },
        {
            "mesh" : 7,
            "name" : "Mesh_7",
            "rotation" : [
                -0.7071068286895752,
                0,
                0,
                0.7071067094802856
            ],
            "scale" : [
                4290.15576171875,
                4290.1552734375,
                4290.1552734375
            ]
        },
        {
            "name" : "Light",
            "rotation" : [
                0.16907575726509094,
                0.7558803558349609,
                -0.27217137813568115,
                0.570947527885437
            ],
            "translation" : [
                4.076245307922363,
                5.903861999511719,
                -1.0054539442062378
            ]
        },
        {
            "name" : "Camera",
            "rotation" : [
                0.483536034822464,
                0.33687159419059753,
                -0.20870360732078552,
                0.7804827094078064
            ],
            "translation" : [
                7.358891487121582,
                4.958309173583984,
                6.925790786743164
            ]
        }
    ],
    "materials" : [
        {
            "emissiveFactor" : [
                0,
                0,
                0
            ],
            "name" : "Green_0",
            "pbrMetallicRoughness" : {
                "baseColorFactor" : [
                    0.015208514407277107,
                    0.4969330430030823,
                    0.07227186113595963,
                    1
                ],
                "metallicFactor" : 0,
                "roughnessFactor" : 1
            }
        },
        {
            "emissiveFactor" : [
                0,
                0,
                0
            ],
            "name" : "Green",
            "pbrMetallicRoughness" : {
                "baseColorFactor" : [
                    0.015208514407277107,
                    0.4969330430030823,
                    0.07227186113595963,
                    1
                ],
                "metallicFactor" : 0,
                "roughnessFactor" : 1
            }
        }
    ],
    "meshes" : [
        {
            "name" : "Mesh_0",
            "primitives" : [
                {
                    "attributes" : {
                        "POSITION" : 0,
                        "NORMAL" : 1
                    },
                    "indices" : 2,
                    "material" : 0
                }
            ]
        },
        {
            "name" : "Mesh_1",
            "primitives" : [
                {
                    "attributes" : {
                        "POSITION" : 3,
                        "NORMAL" : 4,
                        "COLOR_0" : 5
                    },
                    "indices" : 2
                }
            ]
        },
        {
            "name" : "Mesh_2",
            "primitives" : [
                {
                    "attributes" : {
                        "POSITION" : 6,
                        "NORMAL" : 7
                    },
                    "indices" : 2,
                    "material" : 0
                }
            ]
        },
        {
            "name" : "Mesh_3",
            "primitives" : [
                {
                    "attributes" : {
                        "POSITION" : 8,
                        "NORMAL" : 9,
                        "COLOR_0" : 10
                    },
                    "indices" : 11
                }
            ]
        },
        {
            "name" : "Mesh_4",
            "primitives" : [
                {
                    "attributes" : {
                        "POSITION" : 12,
                        "NORMAL" : 13,
                        "COLOR_0" : 14
                    },
                    "indices" : 11
                }
            ]
        },
        {
            "name" : "Mesh_5",
            "primitives" : [
                {
                    "attributes" : {
                        "POSITION" : 15,
                        "NORMAL" : 16,
                        "COLOR_0" : 17
                    },
                    "indices" : 11
                }
            ]
        },
        {
            "name" : "Mesh_6",
            "primitives" : [
                {
                    "attributes" : {
                        "POSITION" : 18,
                        "NORMAL" : 19,
                        "COLOR_0" : 20
                    },
                    "indices" : 11
                }
            ]
        },
        {
            "name" : "Mesh_7",
            "primitives" : [
                {
                    "attributes" : {
                        "POSITION" : 21,
                        "NORMAL" : 22
                    },
                    "indices" : 23,
                    "material" : 1
                }
            ]
        }
    ],
    "accessors" : [
        {
            "bufferView" : 0,
            "componentType" : 5126,
            "count" : 24,
            "max" : [
                0.000531886937096715,
                0.0005319119081832469,
                0.00492060836404562
            ],
            "min" : [
                -0.000531886937096715,
                -0.0005319148767739534,
                0.0038568286690860987
            ],
            "type" : "VEC3"
        },
        {
            "bufferView" : 1,
            "componentType" : 5126,
            "count" : 24,
            "type" : "VEC3"
        },
        {
            "bufferView" : 2,
            "componentType" : 5123,
            "count" : 36,
            "type" : "SCALAR"
        },
        {
            "bufferView" : 3,
            "componentType" : 5126,
            "count" : 24,
            "max" : [
                0.0012507200008258224,
                0.0012507796054705977,
                0.0038568286690860987
            ],
            "min" : [
                -0.0012507200008258224,
                -0.0012507796054705977,
                0.0013553895987570286
            ],
            "type" : "VEC3"
        },
        {
            "bufferView" : 4,
            "componentType" : 5126,
            "count" : 24,
            "type" : "VEC3"
        },
        {
            "bufferView" : 5,
            "componentType" : 5126,
            "count" : 24,
            "type" : "VEC4"
        },
        {
            "bufferView" : 6,
            "componentType" : 5126,
            "count" : 24,
            "max" : [
                0.000531886937096715,
                0.0005319119081832469,
                0.00492060836404562
            ],
            "min" : [
                -0.000531886937096715,
                -0.0005319148767739534,
                0.0038568286690860987
            ],
            "type" : "VEC3"
        },
        {
            "bufferView" : 7,
            "componentType" : 5126,
            "count" : 24,
            "type" : "VEC3"
        },
        {
            "bufferView" : 8,
            "componentType" : 5126,
            "count" : 29,
            "max" : [
                0.0029671299271285534,
                0.0005319119081832469,
                0.003308359067887068
            ],
            "min" : [
                0.0012507200008258224,
                -0.0005319148767739534,
                0.0027095992118120193
            ],
            "type" : "VEC3"
        },
        {
            "bufferView" : 9,
            "componentType" : 5126,
            "count" : 29,
            "type" : "VEC3"
        },
        {
            "bufferView" : 10,
            "componentType" : 5126,
            "count" : 29,
            "type" : "VEC4"
        },
        {
            "bufferView" : 11,
            "componentType" : 5123,
            "count" : 36,
            "type" : "SCALAR"
        },
        {
            "bufferView" : 12,
            "componentType" : 5126,
            "count" : 29,
            "max" : [
                -0.0012507200008258224,
                0.0005319119081832469,
                0.003308359067887068
            ],
            "min" : [
                -0.0029671299271285534,
                -0.0005319148767739534,
                0.0027095992118120193
            ],
            "type" : "VEC3"
        },
        {
            "bufferView" : 13,
            "componentType" : 5126,
            "count" : 29,
            "type" : "VEC3"
        },
        {
            "bufferView" : 14,
            "componentType" : 5126,
            "count" : 29,
            "type" : "VEC4"
        },
        {
            "bufferView" : 15,
            "componentType" : 5126,
            "count" : 29,
            "max" : [
                -0.0005319139454513788,
                0.0005319119081832469,
                0.0014064995339140296
            ],
            "min" : [
                -0.0011306499363854527,
                -0.000531915866304189,
                5.199998298621722e-08
            ],
            "type" : "VEC3"
        },
        {
            "bufferView" : 16,
            "componentType" : 5126,
            "count" : 29,
            "type" : "VEC3"
        },
        {
            "bufferView" : 17,
            "componentType" : 5126,
            "count" : 29,
            "type" : "VEC4"
        },
        {
            "bufferView" : 18,
            "componentType" : 5126,
            "count" : 29,
            "max" : [
                0.0011293699499219656,
                0.0005319119081832469,
                0.0014064995339140296
            ],
            "min" : [
                0.0005306339589878917,
                -0.000531915866304189,
                5.199998298621722e-08
            ],
            "type" : "VEC3"
        },
        {
            "bufferView" : 19,
            "componentType" : 5126,
            "count" : 29,
            "type" : "VEC3"
        },
        {
            "bufferView" : 20,
            "componentType" : 5126,
            "count" : 29,
            "type" : "VEC4"
        },
        {
            "bufferView" : 21,
            "componentType" : 5126,
            "count" : 648,
            "max" : [
                0.0005635710549540818,
                0.0005651409737765789,
                0.006060386076569557
            ],
            "min" : [
                -0.0005573261878453195,
                -0.0005688369274139404,
                0.004929129499942064
            ],
            "type" : "VEC3"
        },
        {
            "bufferView" : 22,
            "componentType" : 5126,
            "count" : 648,
            "type" : "VEC3"
        },
        {
            "bufferView" : 23,
            "componentType" : 5123,
            "count" : 648,
            "type" : "SCALAR"
        }
    ],
    "bufferViews" : [
        {
            "buffer" : 0,
            "byteLength" : 288,
            "byteOffset" : 0
        },
        {
            "buffer" : 0,
            "byteLength" : 288,
            "byteOffset" : 288
        },
        {
            "buffer" : 0,
            "byteLength" : 72,
            "byteOffset" : 576
        },
        {
            "buffer" : 0,
            "byteLength" : 288,
            "byteOffset" : 648
        },
        {
            "buffer" : 0,
            "byteLength" : 288,
            "byteOffset" : 936
        },
        {
            "buffer" : 0,
            "byteLength" : 384,
            "byteOffset" : 1224
        },
        {
            "buffer" : 0,
            "byteLength" : 288,
            "byteOffset" : 1608
        },
        {
            "buffer" : 0,
            "byteLength" : 288,
            "byteOffset" : 1896
        },
        {
            "buffer" : 0,
            "byteLength" : 348,
            "byteOffset" : 2184
        },
        {
            "buffer" : 0,
            "byteLength" : 348,
            "byteOffset" : 2532
        },
        {
            "buffer" : 0,
            "byteLength" : 464,
            "byteOffset" : 2880
        },
        {
            "buffer" : 0,
            "byteLength" : 72,
            "byteOffset" : 3344
        },
        {
            "buffer" : 0,
            "byteLength" : 348,
            "byteOffset" : 3416
        },
        {
            "buffer" : 0,
            "byteLength" : 348,
            "byteOffset" : 3764
        },
        {
            "buffer" : 0,
            "byteLength" : 464,
            "byteOffset" : 4112
        },
        {
            "buffer" : 0,
            "byteLength" : 348,
            "byteOffset" : 4576
        },
        {
            "buffer" : 0,
            "byteLength" : 348,
            "byteOffset" : 4924
        },
        {
            "buffer" : 0,
            "byteLength" : 464,
            "byteOffset" : 5272
        },
        {
            "buffer" : 0,
            "byteLength" : 348,
            "byteOffset" : 5736
        },
        {
            "buffer" : 0,
            "byteLength" : 348,
            "byteOffset" : 6084
        },
        {
            "buffer" : 0,
            "byteLength" : 464,
            "byteOffset" : 6432
        },
        {
            "buffer" : 0,
            "byteLength" : 7776,
            "byteOffset" : 6896
        },
        {
            "buffer" : 0,
            "byteLength" : 7776,
            "byteOffset" : 14672
        },
        {
            "buffer" : 0,
            "byteLength" : 1296,
            "byteOffset" : 22448
        }
    ],
    "buffers" : [
        {
            "byteLength" : 23744,
            "uri" : "myperson.bin"
        }
    ]
}
